PathFileType	4	(X/Y/Z)	TVC_4_BWA_7_walk_RCNL2025.trc
DataRate	CameraRate	NumFrames	NumMarkers	Units	OrigDataRate	OrigDataStartFrame	OrigNumFrames
100	100	12	27	mm	100	60	474
Frame#	Time	R_Shoulder			L_Shoulder			C7			J_Notch			R_Elbow			L_Elbow			R_Wrist			L_Wrist			R_Asis			L_Asis			R_Psis			L_Psis			Sacral			Thoracic			Sternum			R_Thigh_Lateral			R_Knee_Lateral			R_Shank_Lateral			R_Ankle_Lateral			R_Heel			R_Toe			L_Thigh_Lateral			L_Knee_Lateral			L_Shank_Lateral			L_Ankle_Lateral			L_Heel			L_Toe		
		X1	Y1	Z1	X2	Y2	Z2	X3	Y3	Z3	X4	Y4	Z4	X5	Y5	Z5	X6	Y6	Z6	X7	Y7	Z7	X8	Y8	Z8	X9	Y9	Z9	X10	Y10	Z10	X11	Y11	Z11	X12	Y12	Z12	X13	Y13	Z13	X14	Y14	Z14	X15	Y15	Z15	X16	Y16	Z16	X17	Y17	Z17	X18	Y18	Z18	X19	Y19	Z19	X20	Y20	Z20	X21	Y21	Z21	X22	Y22	Z22	X23	Y23	Z23	X24	Y24	Z24	X25	Y25	Z25	X26	Y26	Z26	X27	Y27	Z27
60	0.59000000	-1488.411743	1291.767334	-75.504860	-1492.433350	1304.170898	-458.900146	-1550.339966	1362.040649	-251.802063	-1404.889771	1244.014771	-277.599365	-1437.047729	983.180786	3.831012	-1626.605713	1001.972168	-488.958435	-1260.459229	831.650146	-22.705845	-1633.581665	785.721100	-490.373260	-1472.851685	847.831238	-89.383339	-1495.520752	839.874023	-442.319977	-1624.034302	880.523193	-205.733994	-1628.881836	877.294434	-298.042786	-1626.458069	878.908813	-251.888390	-1624.509521	1111.907959	-249.596283	-1364.144165	1054.304199	-280.380035	-1530.078979	499.604889	-88.316284	-1576.574463	417.955109	-142.318939	-1655.794434	260.904907	-77.414825	-1764.527100	79.140556	-171.769363	-1817.319092	87.991722	-211.638214	-1647.643066	43.097115	-207.706741	-1385.450317	502.197449	-447.609924	-1363.861206	424.579712	-397.736237	-1340.684448	304.066315	-440.992828	-1304.150757	57.604855	-354.976074	-1347.741821	45.256664	-306.754059	-1168.838745	53.789124	-339.974091
61	0.60000000	-1479.033813	1292.299438	-76.664764	-1483.050537	1304.391602	-460.083771	-1541.036011	1362.252075	-253.028702	-1395.335571	1244.549438	-278.768066	-1428.118774	983.528564	2.541309	-1616.803833	1002.067566	-489.938171	-1251.012695	832.599030	-24.275853	-1624.328918	785.883759	-491.286423	-1462.437744	847.401001	-90.756233	-1485.490112	840.936646	-443.243317	-1614.106445	880.566589	-206.555649	-1618.908081	877.795227	-298.948883	-1616.507263	879.180908	-252.752266	-1614.806152	1112.049194	-250.567490	-1354.081665	1055.086426	-281.446991	-1519.035278	499.316528	-89.496895	-1565.088867	417.849030	-143.190887	-1648.773682	263.253937	-77.593147	-1761.679199	83.903473	-171.234039	-1814.146729	94.341019	-211.198074	-1647.176636	42.838505	-207.743484	-1374.216309	503.882782	-447.528412	-1354.071533	425.407135	-397.735596	-1332.628052	304.478943	-441.066864	-1303.084106	57.306767	-354.743866	-1346.951782	46.104115	-306.618286	-1167.323853	50.069473	-339.449371
62	0.61000000	-1469.539673	1293.098633	-77.849472	-1473.602905	1304.871338	-461.261566	-1531.656250	1362.683716	-254.260239	-1385.713257	1245.288452	-279.955170	-1419.484009	984.073059	1.194767	-1606.692139	1002.307251	-491.059265	-1242.173523	833.423187	-25.898988	-1614.288086	786.157257	-492.323227	-1452.087769	847.209473	-92.189171	-1475.533325	842.328857	-444.163300	-1604.253662	880.846619	-207.358810	-1609.009033	878.557495	-299.841125	-1606.631348	879.702057	-253.599968	-1605.096558	1112.440308	-251.530640	-1343.986816	1056.106445	-282.550110	-1507.254761	499.145874	-90.544685	-1552.585083	417.846527	-143.862686	-1640.932251	266.147614	-77.564911	-1758.217163	89.383804	-170.540054	-1810.089111	101.683670	-210.623764	-1646.713623	42.582970	-207.803833	-1363.473389	505.529999	-447.496368	-1344.996826	426.270233	-397.791687	-1325.232666	305.034882	-441.280273	-1302.248291	57.168591	-354.542847	-1346.310547	46.888226	-306.531128	-1166.148682	47.368645	-338.900055
63	0.62000000	-1459.943970	1294.139893	-79.048996	-1464.087524	1305.596313	-462.421753	-1522.206055	1363.319824	-255.486298	-1376.027710	1246.211792	-281.145599	-1411.135010	984.797424	-0.194241	-1596.283813	1002.683594	-492.313263	-1233.948303	834.091339	-27.565161	-1603.467224	786.533325	-493.475021	-1441.848389	847.245117	-93.665726	-1465.649414	844.004700	-445.080139	-1594.496826	881.350220	-208.154327	-1599.200317	879.560791	-300.727692	-1596.848572	880.455505	-254.441010	-1595.393311	1113.065918	-252.485107	-1333.882324	1057.329590	-283.673248	-1494.683838	499.055481	-91.400421	-1539.053345	417.919830	-144.285751	-1632.181396	269.599457	-77.281555	-1754.073486	95.566498	-169.661880	-1805.010132	110.021248	-209.880646	-1646.193604	42.397903	-207.869965	-1353.466431	507.020355	-447.534149	-1336.732666	427.104614	-397.915802	-1318.652954	305.644287	-441.595551	-1301.594238	57.151882	-354.372040	-1345.791382	47.558201	-306.485626	-1165.271606	45.588135	-338.329865
64	0.63000000	-1450.267090	1295.389526	-80.252045	-1454.501953	1306.545288	-463.553009	-1512.691528	1364.139893	-256.696808	-1366.285767	1247.294189	-282.323395	-1403.061035	985.677429	-1.610866	-1585.591919	1003.181580	-493.691498	-1226.336792	834.570770	-29.258106	-1591.881104	787.000610	-494.732117	-1431.762817	847.489136	-95.165184	-1455.835571	845.908508	-445.995422	-1584.854248	882.059875	-208.951843	-1589.496948	880.779297	-301.615601	-1587.175598	881.419586	-255.283722	-1585.708618	1113.905029	-253.431549	-1323.791626	1058.713745	-284.798859	-1481.280273	499.008850	-92.016907	-1524.521240	418.037903	-144.422531	-1622.439697	273.580261	-76.715202	-1749.170654	102.400993	-168.585846	-1798.793213	119.289391	-208.948242	-1645.492065	42.378628	-207.901413	-1344.427368	508.259552	-447.669189	-1329.345093	427.856995	-398.122864	-1313.024658	306.218445	-441.966339	-1301.091675	57.216427	-354.231110	-1345.382812	48.088379	-306.471375	-1164.653320	44.563656	-337.760925
65	0.64000000	-1440.533447	1296.806763	-81.446075	-1444.844116	1307.690308	-464.644684	-1503.120361	1365.120117	-257.882202	-1356.496216	1248.507324	-283.472107	-1395.249268	986.682373	-3.040302	-1574.629517	1003.780273	-495.185272	-1219.323669	834.835632	-30.961197	-1579.550537	787.545471	-496.084122	-1421.868896	847.917053	-96.662941	-1446.089111	847.978088	-446.911682	-1575.341797	882.954651	-209.759171	-1579.912842	882.183533	-302.509888	-1577.627319	882.569092	-256.134529	-1576.054199	1114.932495	-254.371704	-1313.737427	1060.211548	-285.908478	-1467.027832	498.979828	-92.366852	-1509.057617	418.172241	-144.251419	-1611.654297	278.017548	-75.863281	-1743.415771	109.798599	-167.314423	-1791.352173	129.346939	-207.828384	-1644.407593	42.643074	-207.828079	-1336.525879	509.192108	-447.931244	-1322.857666	428.489746	-398.428650	-1308.420532	306.683319	-442.349640	-1300.721191	57.324821	-354.120026	-1345.079224	48.476067	-306.476837	-1164.254272	44.102348	-337.225983
66	0.65000000	-1430.769653	1298.345459	-82.617554	-1435.112915	1308.997803	-465.687012	-1493.500366	1366.233887	-259.033386	-1346.669678	1249.819946	-284.575195	-1387.685425	987.776794	-4.468300	-1563.409302	1004.453796	-496.785889	-1212.877502	834.868591	-32.660593	-1566.502380	788.152924	-497.520187	-1412.198120	848.501648	-98.131439	-1436.409180	850.148499	-447.831879	-1565.972290	884.010803	-210.581696	-1570.460083	883.741089	-303.413361	-1568.216187	883.875946	-256.997528	-1566.441284	1116.119995	-255.307861	-1303.741333	1061.773193	-286.983459	-1451.952148	498.962555	-92.446716	-1492.771240	418.303467	-143.770828	-1599.816406	282.796234	-74.750259	-1736.698975	117.633331	-165.868851	-1782.637207	139.971558	-206.550812	-1642.658691	43.319519	-207.546967	-1329.829712	509.807892	-448.345947	-1317.244507	428.983215	-398.845825	-1304.818970	306.989075	-442.715424	-1300.468384	57.445633	-354.038239	-1344.875732	48.736202	-306.491119	-1164.034180	44.014580	-336.759552
67	0.66000000	-1421.002563	1299.957397	-83.752296	-1425.308350	1310.431152	-466.671356	-1483.839722	1367.454102	-260.141876	-1336.818481	1251.200195	-285.616669	-1380.353882	988.922424	-5.881658	-1551.942383	1005.173035	-498.484741	-1206.954041	834.657684	-34.343681	-1552.768616	788.807526	-499.029221	-1402.774780	849.215088	-99.541946	-1426.797974	852.355591	-448.758575	-1556.755249	885.203186	-211.422226	-1561.149048	885.418091	-304.326355	-1558.952148	885.310638	-257.874290	-1556.880249	1117.438354	-256.242645	-1293.822998	1063.348755	-288.005402	-1436.136963	498.978271	-92.275711	-1475.804443	418.426727	-143.001694	-1586.963989	287.760376	-73.428070	-1728.895386	125.746147	-164.289047	-1772.635742	150.865952	-205.175507	-1639.896118	44.526634	-206.924454	-1324.287476	510.140106	-448.928284	-1312.431763	429.335480	-399.380768	-1302.094604	307.114563	-443.052002	-1300.319214	57.555229	-353.984436	-1344.763916	48.894798	-306.505493	-1163.953125	44.136547	-336.391083
68	0.67000000	-1411.257935	1301.594482	-84.836006	-1415.431763	1311.952026	-467.590118	-1474.146851	1368.753052	-261.199829	-1326.955811	1252.616699	-286.581482	-1373.238647	990.080505	-7.268647	-1540.238770	1005.907410	-500.273163	-1201.502563	834.192780	-35.994983	-1538.385559	789.494537	-500.600204	-1393.614380	850.031128	-100.867004	-1417.262573	854.538757	-449.693115	-1547.696533	886.505859	-212.280807	-1551.987793	887.180542	-305.246643	-1549.842163	886.843201	-258.763725	-1547.380127	1118.858032	-257.178467	-1284.000000	1064.890991	-288.956848	-1419.732788	499.077148	-91.890129	-1458.320679	418.555664	-141.987320	-1573.171265	292.722107	-71.974419	-1719.874268	133.951172	-162.630463	-1761.366699	161.676178	-203.789856	-1635.733765	46.347980	-205.806610	-1319.738281	510.255157	-449.678375	-1308.307617	429.559784	-400.031342	-1300.037109	307.065735	-443.366302	-1300.258789	57.638519	-353.956238	-1344.732178	48.982483	-306.514099	-1163.973877	44.342518	-336.140686
69	0.68000000	-1401.558716	1303.211426	-85.854866	-1405.485962	1313.522827	-468.436951	-1464.429443	1370.104614	-262.200287	-1317.095581	1254.039673	-287.456146	-1366.322876	991.214111	-8.619356	-1528.306885	1006.627197	-502.142578	-1196.471619	833.464172	-37.594848	-1523.393066	790.200989	-502.222137	-1384.721558	850.926636	-102.083313	-1407.814697	856.643738	-450.634705	-1538.798584	887.893433	-213.154953	-1542.981567	888.995483	-306.169952	-1540.890076	888.444458	-259.662453	-1537.948975	1120.350464	-258.117401	-1274.287354	1066.358032	-289.821930	-1402.953613	499.333710	-91.334572	-1440.489746	418.722809	-140.790115	-1558.523804	297.483978	-70.487701	-1709.515503	142.042740	-160.956406	-1748.869995	172.019302	-202.498764	-1629.788940	48.806118	-204.039215	-1315.942261	510.236786	-450.579803	-1304.735229	429.679443	-400.786133	-1298.391968	306.869995	-443.679138	-1300.269165	57.688442	-353.950104	-1344.764893	49.029118	-306.514435	-1164.062744	44.547897	-336.016632
70	0.69000000	-1391.923828	1304.767700	-86.796265	-1395.475098	1315.108032	-469.206787	-1454.695312	1371.484375	-263.137146	-1307.252319	1255.442505	-288.228943	-1359.590332	992.290344	-9.925922	-1516.153442	1007.304932	-504.084259	-1191.814331	832.463867	-39.123687	-1507.833496	790.916260	-503.884186	-1376.089844	851.881958	-103.174660	-1398.471313	858.624756	-451.579529	-1530.060547	889.341431	-214.039948	-1534.132568	890.831787	-307.090088	-1532.096558	890.086609	-260.565018	-1528.592773	1121.889771	-259.060760	-1264.697388	1067.715454	-290.586914	-1386.056274	499.836670	-90.653389	-1422.469971	418.977051	-139.485306	-1543.092651	301.877350	-69.077232	-1697.729858	149.802414	-159.327988	-1735.193237	181.515991	-201.407684	-1621.726318	51.844654	-201.496567	-1312.621826	510.168884	-451.600616	-1301.569336	429.722076	-401.624451	-1296.907837	306.567993	-444.017029	-1300.330322	57.704662	-353.960999	-1344.844727	49.060001	-306.507080	-1164.191284	44.705479	-336.014832
71	0.70000000	-1382.367554	1306.229614	-87.649460	-1385.404907	1316.675903	-469.895752	-1444.951660	1372.870361	-264.005310	-1297.439697	1256.802124	-288.890472	-1353.024658	993.281799	-11.182635	-1503.783691	1007.917358	-506.089447	-1187.492065	831.187561	-40.565519	-1491.751282	791.633270	-505.575684	-1367.700195	852.881714	-104.134117	-1389.253662	860.445312	-452.520935	-1521.477905	890.827209	-214.929214	-1525.439941	892.661255	-307.999664	-1523.458923	891.744232	-261.464439	-1519.316284	1123.452637	-260.009033	-1255.239624	1068.937134	-291.240631	-1369.304321	500.672729	-89.885735	-1404.394043	419.376892	-138.153015	-1526.923828	305.806244	-67.848114	-1684.468628	157.007538	-157.795563	-1720.380127	189.823715	-200.601379	-1611.297363	55.325523	-198.113174	-1309.502319	510.120514	-452.696869	-1298.669800	429.714020	-402.517914	-1295.379639	306.205292	-444.402954	-1300.420654	57.691868	-353.982330	-1344.953003	49.094147	-306.494873	-1164.335815	44.797558	-336.119934
